name ./resultDataOpenSim/trcMotMarkerGrf/sub09/grf-01-07.mot
datacolumns 19
datarows 17
range 0.47200000 0.53600000
endheader

                time	     ground_force_vx	     ground_force_vy	     ground_force_vz	     ground_force_px	     ground_force_py	     ground_force_pz	   l_ground_force_vx	   l_ground_force_vy	   l_ground_force_vz	   l_ground_force_px	   l_ground_force_py	   l_ground_force_pz	     ground_torque_x	     ground_torque_y	     ground_torque_z	   l_ground_torque_x	   l_ground_torque_y	   l_ground_torque_z	
          0.47200000	         10.87324882	        374.71719538	        -13.01122120	         -0.71719751	          0.00000000	          0.10355305	          0.00000000	          0.00000000	          0.00000000	          0.00000000	          0.00000000	          0.00000000	          0.00000000	          4.58232103	          0.00000000	          0.00000000	          0.00000000	          0.00000000	
          0.47600000	         14.42664292	        380.56579182	        -12.91932267	         -0.71716761	          0.00000000	          0.10382749	          0.00000000	          0.00000000	          0.00000000	          0.00000000	          0.00000000	          0.00000000	          0.00000000	          5.03591495	          0.00000000	          0.00000000	          0.00000000	          0.00000000	
          0.48000000	         17.53919299	        386.99256295	        -13.16958486	         -0.71696958	          0.00000000	          0.10408855	          0.00000000	          0.00000000	          0.00000000	          0.00000000	          0.00000000	          0.00000000	          0.00000000	          5.46923869	          0.00000000	          0.00000000	          0.00000000	          0.00000000	
          0.48400000	         20.34396640	        393.95906260	        -13.89557463	         -0.71658474	          0.00000000	          0.10435560	          0.00000000	          0.00000000	          0.00000000	          0.00000000	          0.00000000	          0.00000000	          0.00000000	          5.85398290	          0.00000000	          0.00000000	          0.00000000	          0.00000000	
          0.48800000	         23.07460262	        401.43490721	        -15.10434568	         -0.71602676	          0.00000000	          0.10464682	          0.00000000	          0.00000000	          0.00000000	          0.00000000	          0.00000000	          0.00000000	          0.00000000	          6.17690737	          0.00000000	          0.00000000	          0.00000000	          0.00000000	
          0.49200000	         25.98531540	        409.40969842	        -16.67908406	         -0.71532714	          0.00000000	          0.10497106	          0.00000000	          0.00000000	          0.00000000	          0.00000000	          0.00000000	          0.00000000	          0.00000000	          6.44151822	          0.00000000	          0.00000000	          0.00000000	          0.00000000	
          0.49600000	         29.27017393	        417.90178573	        -18.41219107	         -0.71451616	          0.00000000	          0.10532078	          0.00000000	          0.00000000	          0.00000000	          0.00000000	          0.00000000	          0.00000000	          0.00000000	          6.66543228	          0.00000000	          0.00000000	          0.00000000	          0.00000000	
          0.50000000	         33.00639643	        426.96545517	        -20.06333307	         -0.71360834	          0.00000000	          0.10568070	          0.00000000	          0.00000000	          0.00000000	          0.00000000	          0.00000000	          0.00000000	          0.00000000	          6.87388337	          0.00000000	          0.00000000	          0.00000000	          0.00000000	
          0.50400000	         37.13704103	        436.70025405	        -21.42935127	         -0.71260984	          0.00000000	          0.10602770	          0.00000000	          0.00000000	          0.00000000	          0.00000000	          0.00000000	          0.00000000	          0.00000000	          7.09090495	          0.00000000	          0.00000000	          0.00000000	          0.00000000	
          0.50800000	         41.49414672	        447.24248535	        -22.40642866	         -0.71151617	          0.00000000	          0.10633941	          0.00000000	          0.00000000	          0.00000000	          0.00000000	          0.00000000	          0.00000000	          0.00000000	          7.33053215	          0.00000000	          0.00000000	          0.00000000	          0.00000000	
          0.51200000	         45.84944217	        458.72116911	        -23.02753224	         -0.71030351	          0.00000000	          0.10660470	          0.00000000	          0.00000000	          0.00000000	          0.00000000	          0.00000000	          0.00000000	          0.00000000	          7.59054474	          0.00000000	          0.00000000	          0.00000000	          0.00000000	
          0.51600000	         49.97428620	        471.20583676	        -23.46600633	         -0.70894832	          0.00000000	          0.10682378	          0.00000000	          0.00000000	          0.00000000	          0.00000000	          0.00000000	          0.00000000	          0.00000000	          7.85067917	          0.00000000	          0.00000000	          0.00000000	          0.00000000	
          0.52000000	         53.69468382	        484.69217216	        -23.99877387	         -0.70743628	          0.00000000	          0.10700860	          0.00000000	          0.00000000	          0.00000000	          0.00000000	          0.00000000	          0.00000000	          0.00000000	          8.07608337	          0.00000000	          0.00000000	          0.00000000	          0.00000000	
          0.52400000	         56.92704313	        499.12989894	        -24.93160610	         -0.70576565	          0.00000000	          0.10716810	          0.00000000	          0.00000000	          0.00000000	          0.00000000	          0.00000000	          0.00000000	          0.00000000	          8.22542896	          0.00000000	          0.00000000	          0.00000000	          0.00000000	
          0.52800000	         59.68554700	        514.45162755	        -26.50332169	         -0.70394390	          0.00000000	          0.10730037	          0.00000000	          0.00000000	          0.00000000	          0.00000000	          0.00000000	          0.00000000	          0.00000000	          8.26185502	          0.00000000	          0.00000000	          0.00000000	          0.00000000	
          0.53200000	         62.06261120	        530.58036546	        -28.79437698	         -0.70199897	          0.00000000	          0.10739269	          0.00000000	          0.00000000	          0.00000000	          0.00000000	          0.00000000	          0.00000000	          0.00000000	          8.16407016	          0.00000000	          0.00000000	          0.00000000	          0.00000000	
          0.53600000	         64.19237809	        547.42789199	        -31.67411915	         -0.69998680	          0.00000000	          0.10741587	          0.00000000	          0.00000000	          0.00000000	          0.00000000	          0.00000000	          0.00000000	          0.00000000	          7.93469787	          0.00000000	          0.00000000	          0.00000000	          0.00000000	
